<svg width="64" height="64" viewBox="0 0 64 64" fill="none" xmlns="http://www.w3.org/2000/svg">
<g clip-path="url(#clip0_1_164)">
<path d="M19.2 4C11.2873 4 5.8325 6.6925 5.8325 6.6925C5.61857 6.7983 5.43849 6.9618 5.31259 7.1646C5.18669 7.3674 5.11998 7.6013 5.12 7.84V11.68H3.84C1.73444 11.68 0 13.4144 0 15.52V48.8C0 50.9055 1.73444 52.64 3.84 52.64H29.1575C29.8603 53.4199 30.8673 53.92 32 53.92C33.1327 53.92 34.1397 53.4199 34.8425 52.64H60.16C62.2656 52.64 64 50.9055 64 48.8V15.52C64 13.4144 62.2656 11.68 60.16 11.68H58.88V7.84C58.88 7.6013 58.8133 7.3674 58.6874 7.1646C58.5615 6.9618 58.3814 6.7983 58.1675 6.6925C58.1675 6.6925 52.7127 4 44.8 4C38.0391 4 33.3026 5.8752 32 6.4475C30.6974 5.8752 25.9609 4 19.2 4ZM19.2 6.56C25.7626 6.56 29.8182 8.3191 30.72 8.73V45.7C28.8236 44.9416 25.1687 43.68 19.2 43.68C13.2313 43.68 9.57643 44.9416 7.68 45.7V13.175C7.70285 13.0367 7.70285 12.8957 7.68 12.7575V8.73C8.58184 8.3191 12.6374 6.56 19.2 6.56ZM44.8 6.56C51.3626 6.56 55.4182 8.3191 56.32 8.73V12.745C56.2972 12.8832 56.2972 13.0242 56.32 13.1625V45.7C54.4236 44.9416 50.7687 43.68 44.8 43.68C38.8313 43.68 35.1764 44.9416 33.28 45.7V8.73C34.1818 8.3191 38.2374 6.56 44.8 6.56ZM43.52 11.68V14.35C41.3256 14.7045 39.8973 15.9314 39.205 17.1575C38.3854 18.609 38.4 20.055 38.4 20.055C38.4 21.8742 39.314 23.3242 40.4725 24.2675C41.631 25.2108 43.0042 25.7916 44.2825 26.3575C45.5608 26.9234 46.7415 27.4748 47.5025 28.105C48.2635 28.7351 48.64 29.3058 48.64 30.4C48.64 30.4 48.6292 31.1494 48.18 31.9075C47.7308 32.6655 47 33.44 44.8 33.44C42.6667 33.44 41.9524 32.5622 41.465 31.5875C40.9776 30.6128 40.96 29.6 40.96 29.6H38.4C38.4 29.6 38.3823 31.1472 39.175 32.7325C39.8466 34.0757 41.2828 35.4774 43.52 35.8775V38.56H46.08V35.895C48.2585 35.558 49.6789 34.3955 50.38 33.2125C51.2108 31.8105 51.2 30.4 51.2 30.4C51.2 28.561 50.2965 27.0922 49.1375 26.1325C47.9785 25.1727 46.5992 24.5849 45.3175 24.0175C44.0358 23.4501 42.849 22.9025 42.0875 22.2825C41.326 21.6624 40.96 21.1157 40.96 20.055C40.96 20.055 40.9746 19.2303 41.435 18.415C41.8954 17.5997 42.6178 16.8 44.8 16.8C46.9333 16.8 47.6476 17.6778 48.135 18.6525C48.6223 19.6272 48.64 20.64 48.64 20.64H51.2C51.2 20.64 51.2177 19.0928 50.425 17.5075C49.7534 16.1642 48.3172 14.7626 46.08 14.3625V11.68H43.52ZM3.84 14.24H5.12V47.52C5.12001 47.7382 5.17578 47.9527 5.28203 48.1433C5.38829 48.3339 5.54148 48.4941 5.72709 48.6088C5.91269 48.7236 6.12453 48.7889 6.3425 48.7988C6.56047 48.8086 6.77733 48.7625 6.9725 48.665C6.9725 48.665 11.8071 46.24 19.2 46.24C26.5929 46.24 31.4275 48.665 31.4275 48.665C31.4634 48.6825 31.5001 48.6984 31.5375 48.7125C31.5704 48.7247 31.6037 48.7355 31.6375 48.745C31.6475 48.7484 31.6575 48.7518 31.6675 48.755C31.7468 48.7769 31.828 48.7911 31.91 48.7975C31.9533 48.8005 31.9967 48.8013 32.04 48.8C32.0425 48.8 32.045 48.8 32.0475 48.8C32.0902 48.7979 32.1327 48.7938 32.175 48.7875C32.2136 48.7826 32.252 48.7759 32.29 48.7675C32.2933 48.7666 32.2967 48.7658 32.3 48.765C32.3042 48.7642 32.3083 48.7633 32.3125 48.7625C32.4024 48.7395 32.4896 48.7068 32.5725 48.665C32.5725 48.665 37.4071 46.24 44.8 46.24C52.1929 46.24 57.0275 48.665 57.0275 48.665C57.2227 48.7625 57.4395 48.8086 57.6575 48.7988C57.8755 48.7889 58.0873 48.7236 58.2729 48.6088C58.4585 48.4941 58.6117 48.3339 58.718 48.1433C58.8242 47.9527 58.88 47.7382 58.88 47.52V14.24H60.16C60.8832 14.24 61.44 14.7967 61.44 15.52V48.8C61.44 49.5232 60.8832 50.08 60.16 50.08H3.84C3.11676 50.08 2.56 49.5232 2.56 48.8V15.52C2.56 14.7967 3.11676 14.24 3.84 14.24Z" fill="#00486D"/>
</g>
<defs>
<clipPath id="clip0_1_164">
<rect width="64" height="64" fill="white"/>
</clipPath>
</defs>
</svg>
