<svg width="64" height="64" viewBox="0 0 64 64" fill="none" xmlns="http://www.w3.org/2000/svg">
<g clip-path="url(#clip0_7813_5)">
<path d="M47.4785 14H16.5215C11.2713 14 7 18.2713 7 23.5215V54.4785C7 59.7287 11.2713 64 16.5215 64H47.4785C52.7287 64 57 59.7287 57 54.4785V23.5215C57 18.2713 52.7287 14 47.4785 14ZM55.5352 54.4785C55.5352 58.921 51.9209 62.5352 47.4785 62.5352H16.5215C12.079 62.5352 8.46484 58.921 8.46484 54.4785V23.5215C8.46484 19.079 12.079 15.4648 16.5215 15.4648H47.4785C51.9209 15.4648 55.5352 19.079 55.5352 23.5215V54.4785Z" fill="#00486D"/>
<path d="M47.625 19.8594H37.0781C36.6735 19.8594 36.3457 20.1873 36.3457 20.5918V24.5056H32.1953C31.7908 24.5056 31.4629 24.8335 31.4629 25.238C31.4629 25.6425 31.7908 25.9704 32.1953 25.9704H46.8926V29.1855C46.8926 31.6895 44.8556 33.7266 42.3516 33.7266C39.8476 33.7266 37.8105 31.6895 37.8105 29.1855V28.1678C37.8105 27.7633 37.4827 27.4354 37.0781 27.4354C36.6735 27.4354 36.3457 27.7633 36.3457 28.1678V29.1855C36.3457 32.4972 39.0399 35.1914 42.3516 35.1914C45.6632 35.1914 48.3574 32.4972 48.3574 29.1855V20.5918C48.3574 20.1873 48.0296 19.8594 47.625 19.8594ZM46.8926 24.5056H37.8105V21.3242H46.8926V24.5056Z" fill="#00486D"/>
<path d="M45.5254 36.6562H22.0879C20.3379 36.6562 18.9141 38.0801 18.9141 39.8301C18.9141 41.5801 20.3379 43.0039 22.0879 43.0039H33.5625V57.4082C33.5625 57.8127 33.8903 58.1406 34.2949 58.1406H50.4082C50.8128 58.1406 51.1406 57.8127 51.1406 57.4082V42.2715C51.1406 39.1752 48.6217 36.6562 45.5254 36.6562ZM34.2949 41.5391H22.0879C21.1456 41.5391 20.3789 40.7724 20.3789 39.8301C20.3789 38.8878 21.1456 38.1211 22.0879 38.1211H45.5254C46.4057 38.1211 47.2222 38.3974 47.8944 38.8666L35.0273 51.7337V42.2715C35.0273 41.867 34.6995 41.5391 34.2949 41.5391ZM49.6758 56.6758H35.0273V54.2344H49.6758V56.6758ZM49.6758 52.7695H36.0632L48.9303 39.9024C49.3995 40.5748 49.6758 41.3913 49.6758 42.2715V52.7695Z" fill="#00486D"/>
<path d="M31.3652 52.7695H17.2539V38.6582C17.2539 38.2537 16.926 37.9258 16.5215 37.9258H13.5918C13.1873 37.9258 12.8594 38.2537 12.8594 38.6582V53.502C12.8594 53.9064 13.1873 54.2344 13.5918 54.2344H15.7891V57.4082C15.7891 57.8127 16.117 58.1406 16.5215 58.1406H31.3652C31.7697 58.1406 32.0977 57.8127 32.0977 57.4082V53.502C32.0977 53.0975 31.7697 52.7695 31.3652 52.7695ZM15.7891 52.7695H14.3242V39.3906H15.7891V52.7695ZM30.6328 56.6758H17.2539V54.2344H30.6328V56.6758Z" fill="#00486D"/>
</g>
<defs>
<clipPath id="clip0_7813_5">
<rect width="50" height="50" fill="white" transform="translate(7 14)"/>
</clipPath>
</defs>
</svg>
