<svg width="193" height="23" viewBox="0 0 193 23" fill="none" xmlns="http://www.w3.org/2000/svg">
<path d="M0.564125 22V21.328L1.20413 21.136C1.63079 20.9867 1.90813 20.7947 2.03613 20.56C2.18546 20.304 2.26013 19.952 2.26013 19.504V3.344C2.26013 2.896 2.18546 2.55467 2.03613 2.32C1.90813 2.064 1.63079 1.86133 1.20413 1.712L0.564125 1.52V0.848H8.56413V1.52L7.92413 1.712C7.51879 1.86133 7.24146 2.064 7.09213 2.32C6.94279 2.55467 6.86813 2.896 6.86813 3.344V19.504C6.86813 19.952 6.94279 20.304 7.09213 20.56C7.24146 20.7947 7.51879 20.9867 7.92413 21.136L8.56413 21.328V22H0.564125ZM10.4169 22V21.328L11.3449 21.072C11.7502 20.9653 12.0275 20.7627 12.1769 20.464C12.3475 20.1653 12.4329 19.8027 12.4329 19.376V3.888C12.2409 3.48267 12.0702 3.184 11.9209 2.992C11.7929 2.77867 11.6542 2.59733 11.5049 2.448C11.3555 2.29867 11.1529 2.128 10.8969 1.936L10.3209 1.52V0.848H15.7929L26.4169 15.376V3.504C26.4169 3.07733 26.3422 2.704 26.1929 2.384C26.0649 2.064 25.7875 1.85067 25.3609 1.744L24.4009 1.52V0.848H29.1689V1.52L28.3689 1.744C27.9635 1.872 27.7075 2.096 27.6009 2.416C27.5155 2.71467 27.4729 3.07733 27.4729 3.504V22.128H25.6809L13.4889 5.36V19.344C13.4889 19.792 13.5529 20.1653 13.6809 20.464C13.8089 20.7627 14.0755 20.9653 14.4809 21.072L15.3449 21.328V22H10.4169ZM39.5129 22.128L32.6649 3.248C32.3875 2.45867 31.8435 1.94667 31.0329 1.712L30.3289 1.52V0.848H39.1929V1.488L38.2969 1.712C37.8062 1.84 37.5289 2.064 37.4649 2.384C37.4222 2.704 37.4862 3.10933 37.6569 3.6L42.2649 17.264L46.9049 3.6C47.0755 3.10933 47.1502 2.704 47.1289 2.384C47.1289 2.064 46.8835 1.84 46.3929 1.712L45.6249 1.488V0.848H50.3929V1.52L49.5929 1.712C49.1449 1.81867 48.8249 2 48.6329 2.256C48.4622 2.512 48.3022 2.864 48.1529 3.312L41.7849 22.128H39.5129ZM59.8294 22.544C58.528 22.544 57.28 22.3093 56.0854 21.84C54.8907 21.3707 53.8134 20.6773 52.8534 19.76C51.9147 18.8213 51.168 17.6587 50.6134 16.272C50.0587 14.8853 49.7814 13.264 49.7814 11.408C49.7814 9.59467 50.0587 7.99467 50.6134 6.608C51.168 5.22133 51.9147 4.05867 52.8534 3.12C53.8134 2.18133 54.8907 1.47733 56.0854 1.008C57.3014 0.517333 58.5494 0.271999 59.8294 0.271999C61.1094 0.271999 62.3467 0.506666 63.5414 0.976C64.7574 1.44533 65.8347 2.14933 66.7734 3.088C67.712 4.00533 68.4587 5.15733 69.0134 6.544C69.568 7.93067 69.8454 9.552 69.8454 11.408C69.8454 13.2213 69.568 14.8213 69.0134 16.208C68.4587 17.5947 67.712 18.7573 66.7734 19.696C65.8347 20.6347 64.768 21.3493 63.5734 21.84C62.3787 22.3093 61.1307 22.544 59.8294 22.544ZM59.8294 21.584C61.0454 21.584 62.0267 21.2747 62.7734 20.656C63.52 20.016 64.064 18.9493 64.4054 17.456C64.7467 15.9627 64.9174 13.9467 64.9174 11.408C64.9174 8.86933 64.7467 6.864 64.4054 5.392C64.064 3.89867 63.52 2.84267 62.7734 2.224C62.0267 1.584 61.0454 1.264 59.8294 1.264C58.6347 1.264 57.6534 1.584 56.8854 2.224C56.1387 2.84267 55.5947 3.89867 55.2534 5.392C54.912 6.864 54.7414 8.86933 54.7414 11.408C54.7414 13.9467 54.912 15.9627 55.2534 17.456C55.5947 18.9493 56.1387 20.016 56.8854 20.656C57.6534 21.2747 58.6347 21.584 59.8294 21.584ZM70.6891 22V21.328L71.3291 21.136C71.7558 20.9867 72.0331 20.7947 72.1611 20.56C72.3105 20.304 72.3851 19.952 72.3851 19.504V3.344C72.3851 2.896 72.3105 2.55467 72.1611 2.32C72.0331 2.064 71.7558 1.86133 71.3291 1.712L70.6891 1.52V0.848H78.6891V1.52L78.0491 1.712C77.6438 1.86133 77.3665 2.064 77.2171 2.32C77.0678 2.55467 76.9931 2.896 76.9931 3.344V19.504C76.9931 19.952 77.0678 20.304 77.2171 20.56C77.3665 20.7947 77.6438 20.9867 78.0491 21.136L78.6891 21.328V22H70.6891ZM90.5394 22.544C88.47 22.544 86.6034 22.1173 84.9394 21.264C83.2754 20.4107 81.9527 19.152 80.9714 17.488C80.0114 15.824 79.5314 13.7973 79.5314 11.408C79.5314 9.616 79.8194 8.02667 80.3954 6.64C80.9927 5.25333 81.8034 4.09067 82.8274 3.152C83.8727 2.192 85.0674 1.47733 86.4114 1.008C87.7554 0.517333 89.1847 0.271999 90.6994 0.271999C91.8727 0.271999 92.9714 0.410666 93.9954 0.688C95.0194 0.943999 96.0007 1.328 96.9394 1.84L97.0674 6.032H96.2034L94.8594 3.504C94.646 3.07733 94.4114 2.69333 94.1554 2.352C93.9207 2.01067 93.6114 1.76533 93.2274 1.616C92.694 1.36 92.0647 1.232 91.3394 1.232C90.0807 1.232 88.9287 1.552 87.8834 2.192C86.8594 2.832 86.038 3.89867 85.4194 5.392C84.8007 6.864 84.4914 8.88 84.4914 11.44C84.4914 13.9787 84.7794 15.9947 85.3554 17.488C85.9527 18.9813 86.7527 20.048 87.7554 20.688C88.758 21.3067 89.8887 21.616 91.1474 21.616C91.7234 21.616 92.1927 21.5733 92.5554 21.488C92.918 21.4027 93.2807 21.2853 93.6434 21.136C94.07 20.9653 94.4007 20.72 94.6354 20.4C94.87 20.0587 95.0727 19.6747 95.2434 19.248L96.4594 16.336H97.3234L97.1954 20.944C96.278 21.456 95.2647 21.8507 94.1554 22.128C93.046 22.4053 91.8407 22.544 90.5394 22.544ZM98.8766 22V21.328L99.5166 21.104C99.9006 20.9973 100.167 20.816 100.317 20.56C100.466 20.2827 100.551 19.9093 100.573 19.44V3.344C100.551 2.896 100.477 2.55467 100.349 2.32C100.221 2.064 99.954 1.872 99.5486 1.744L98.8766 1.52V0.848H114.109L114.333 5.968H113.437L112.157 3.088C111.986 2.68267 111.794 2.37333 111.581 2.16C111.367 1.92533 111.047 1.808 110.621 1.808H105.181C105.159 3.13067 105.149 4.496 105.149 5.904C105.149 7.29067 105.149 8.85867 105.149 10.608H108.317C108.743 10.608 109.063 10.5013 109.277 10.288C109.511 10.0533 109.725 9.744 109.917 9.36L110.461 8.144H111.165V14.064H110.461L109.885 12.848C109.714 12.464 109.522 12.1547 109.309 11.92C109.095 11.6853 108.775 11.568 108.349 11.568H105.149C105.149 13.104 105.149 14.4267 105.149 15.536C105.149 16.6453 105.149 17.6373 105.149 18.512C105.17 19.3653 105.181 20.208 105.181 21.04H111.325C111.751 21.04 112.082 20.9333 112.317 20.72C112.551 20.4853 112.743 20.1653 112.893 19.76L114.077 16.88H114.973L114.749 22H98.8766ZM123.627 22V21.328L124.267 21.168C124.693 21.04 124.971 20.848 125.099 20.592C125.227 20.336 125.291 19.984 125.291 19.536C125.312 18.32 125.323 17.0933 125.323 15.856C125.323 14.5973 125.323 13.3387 125.323 12.08V10.768C125.323 9.53067 125.323 8.29333 125.323 7.056C125.323 5.81867 125.312 4.58133 125.291 3.344C125.291 2.896 125.216 2.55467 125.067 2.32C124.939 2.064 124.661 1.86133 124.235 1.712L123.627 1.52V0.848H131.339C134.453 0.848 136.715 1.43467 138.123 2.608C139.552 3.76 140.267 5.28533 140.267 7.184C140.267 8.37867 139.968 9.488 139.371 10.512C138.795 11.5147 137.835 12.3147 136.491 12.912C135.147 13.5093 133.333 13.808 131.051 13.808H129.899C129.899 14.704 129.899 15.632 129.899 16.592C129.899 17.5307 129.909 18.4907 129.931 19.472C129.931 20.3467 130.325 20.88 131.115 21.072L132.075 21.328V22H123.627ZM129.899 12.88H131.243C132.309 12.88 133.173 12.72 133.835 12.4C134.517 12.0587 135.019 11.4827 135.339 10.672C135.68 9.86133 135.851 8.74133 135.851 7.312C135.851 5.88267 135.669 4.77333 135.307 3.984C134.965 3.17333 134.443 2.608 133.739 2.288C133.035 1.94667 132.16 1.776 131.115 1.776H129.931C129.909 3.248 129.899 4.74133 129.899 6.256C129.899 7.74933 129.899 9.25333 129.899 10.768V12.88ZM141.252 22V21.328L141.892 21.136C142.34 20.9867 142.628 20.7947 142.756 20.56C142.884 20.304 142.948 19.952 142.948 19.504V3.312C142.948 2.88533 142.884 2.55467 142.756 2.32C142.628 2.064 142.35 1.86133 141.924 1.712L141.252 1.52V0.848H149.188V1.52L148.58 1.712C148.174 1.86133 147.897 2.064 147.748 2.32C147.62 2.576 147.556 2.928 147.556 3.376V21.04H152.26C152.985 21.04 153.529 20.8587 153.892 20.496C154.254 20.1333 154.596 19.6107 154.916 18.928L156.1 16.272H156.996L156.676 22H141.252ZM166.987 22.544C165.387 22.544 163.968 22.256 162.731 21.68C161.515 21.104 160.555 20.1973 159.851 18.96C159.168 17.7013 158.827 16.048 158.827 14V10.544C158.827 9.34933 158.827 8.144 158.827 6.928C158.827 5.712 158.816 4.48533 158.795 3.248C158.795 2.416 158.4 1.89333 157.611 1.68L156.907 1.52V0.848H165.547V1.52L164.651 1.712C163.84 1.904 163.435 2.43733 163.435 3.312C163.414 4.50667 163.403 5.712 163.403 6.928C163.403 8.12267 163.403 9.328 163.403 10.544V14.608C163.403 16.6773 163.819 18.1707 164.651 19.088C165.504 20.0053 166.71 20.464 168.267 20.464C169.91 20.464 171.19 19.9733 172.107 18.992C173.046 17.9893 173.515 16.5067 173.515 14.544V3.408C173.515 2.98133 173.43 2.608 173.259 2.288C173.088 1.968 172.79 1.76533 172.363 1.68L171.595 1.52V0.848H176.523V1.52L175.627 1.712C175.222 1.79733 174.944 1.98933 174.795 2.288C174.646 2.58666 174.571 2.94933 174.571 3.376V14.352C174.571 16.9973 173.878 19.024 172.491 20.432C171.104 21.84 169.27 22.544 166.987 22.544ZM184.13 22.544C182.957 22.544 181.762 22.3947 180.546 22.096C179.351 21.8187 178.349 21.4453 177.538 20.976L177.73 16.528H178.658L179.65 18.736C179.949 19.3547 180.258 19.8667 180.578 20.272C180.898 20.6773 181.325 20.9867 181.858 21.2C182.221 21.3493 182.562 21.456 182.882 21.52C183.223 21.5627 183.597 21.584 184.002 21.584C185.303 21.584 186.327 21.2533 187.074 20.592C187.842 19.9093 188.226 19.0133 188.226 17.904C188.226 16.9013 187.959 16.112 187.426 15.536C186.914 14.96 186.082 14.4053 184.93 13.872L183.618 13.296C181.826 12.5067 180.407 11.5893 179.362 10.544C178.338 9.49867 177.826 8.112 177.826 6.384C177.826 5.104 178.146 4.016 178.786 3.12C179.447 2.20267 180.354 1.49867 181.506 1.008C182.658 0.517333 184.002 0.271999 185.538 0.271999C186.669 0.271999 187.725 0.421333 188.706 0.719999C189.709 1.01867 190.583 1.424 191.33 1.936L191.106 5.904H190.178L188.994 3.504C188.653 2.8 188.322 2.29867 188.002 2C187.703 1.68 187.33 1.47733 186.882 1.392C186.626 1.34933 186.402 1.31733 186.21 1.296C186.039 1.27467 185.805 1.264 185.506 1.264C184.461 1.264 183.554 1.57333 182.786 2.192C182.039 2.78933 181.666 3.62133 181.666 4.688C181.666 5.712 181.954 6.544 182.53 7.184C183.106 7.824 183.938 8.38933 185.026 8.88L186.466 9.488C188.535 10.384 190.018 11.344 190.914 12.368C191.81 13.3707 192.258 14.6613 192.258 16.24C192.258 18.1173 191.543 19.6427 190.114 20.816C188.706 21.968 186.711 22.544 184.13 22.544Z" fill="#00486D"/>
</svg>
