<svg width="72" height="64" viewBox="0 0 72 64" fill="none" xmlns="http://www.w3.org/2000/svg">
<g clip-path="url(#clip0_1_188)">
<path d="M60.1125 14H30.15C29.6826 14 29.2343 14.1756 28.9037 14.4882C28.5732 14.8007 28.3875 15.2246 28.3875 15.6667V30.6667H11.6438C10.9426 30.6667 10.2701 30.9301 9.77434 31.3989C9.27854 31.8677 9 32.5036 9 33.1667V61.5C9 62.163 9.27854 62.7989 9.77434 63.2678C10.2701 63.7366 10.9426 64 11.6438 64H32.7938C33.4949 64 34.1674 63.7366 34.6632 63.2678C35.159 62.7989 35.4375 62.163 35.4375 61.5V59H52.851C53.7851 58.997 54.6803 58.6458 55.3423 58.0225L60.8413 52.8225C61.5004 52.1965 61.8718 51.35 61.875 50.4667V15.6667C61.875 15.2246 61.6893 14.8007 61.3588 14.4882C61.0282 14.1756 60.5799 14 60.1125 14V14ZM33.675 61.5C33.675 61.721 33.5822 61.933 33.4169 62.0893C33.2516 62.2455 33.0275 62.3333 32.7938 62.3333H11.6438C11.41 62.3333 11.1859 62.2455 11.0206 62.0893C10.8553 61.933 10.7625 61.721 10.7625 61.5V33.1667C10.7625 32.9457 10.8553 32.7337 11.0206 32.5774C11.1859 32.4211 11.41 32.3333 11.6438 32.3333H32.7938C33.0275 32.3333 33.2516 32.4211 33.4169 32.5774C33.5822 32.7337 33.675 32.9457 33.675 33.1667V61.5ZM35.4375 57.3333V33.1667C35.4375 32.5036 35.159 31.8677 34.6632 31.3989C34.1674 30.9301 33.4949 30.6667 32.7938 30.6667H30.15V15.6667H60.1125V50.4667C60.1099 50.5337 60.1028 50.6005 60.0914 50.6667H54.825C54.3576 50.6667 53.9093 50.8423 53.5787 51.1548C53.2482 51.4674 53.0625 51.8913 53.0625 52.3333V57.3133C52.9925 57.3242 52.9219 57.3308 52.851 57.3333H35.4375ZM54.825 56.155V52.3333H58.8664L54.825 56.155Z" fill="#00486D"/>
<path d="M30.15 34H14.2875C13.8201 34 13.3718 34.1756 13.0412 34.4882C12.7107 34.8007 12.525 35.2246 12.525 35.6667V44C12.525 44.442 12.7107 44.866 13.0412 45.1785C13.3718 45.4911 13.8201 45.6667 14.2875 45.6667H30.15C30.6175 45.6667 31.0658 45.4911 31.3963 45.1785C31.7268 44.866 31.9125 44.442 31.9125 44V35.6667C31.9125 35.2246 31.7268 34.8007 31.3963 34.4882C31.0658 34.1756 30.6175 34 30.15 34ZM30.15 44H14.2875V35.6667H30.15V44Z" fill="#00486D"/>
<path d="M16.05 47.3334H14.2875C13.8201 47.3334 13.3718 47.509 13.0412 47.8215C12.7107 48.1341 12.525 48.558 12.525 49V51.5C12.525 51.9421 12.7107 52.366 13.0412 52.6786C13.3718 52.9911 13.8201 53.1667 14.2875 53.1667H16.05C16.5175 53.1667 16.9658 52.9911 17.2963 52.6786C17.6268 52.366 17.8125 51.9421 17.8125 51.5V49C17.8125 48.558 17.6268 48.1341 17.2963 47.8215C16.9658 47.509 16.5175 47.3334 16.05 47.3334ZM14.2875 51.5V49H16.05V51.5H14.2875Z" fill="#00486D"/>
<path d="M23.1 47.3334H21.3375C20.8701 47.3334 20.4218 47.509 20.0912 47.8215C19.7607 48.1341 19.575 48.558 19.575 49V51.5C19.575 51.9421 19.7607 52.366 20.0912 52.6786C20.4218 52.9911 20.8701 53.1667 21.3375 53.1667H23.1C23.5675 53.1667 24.0158 52.9911 24.3463 52.6786C24.6768 52.366 24.8625 51.9421 24.8625 51.5V49C24.8625 48.558 24.6768 48.1341 24.3463 47.8215C24.0158 47.509 23.5675 47.3334 23.1 47.3334ZM21.3375 51.5V49H23.1V51.5H21.3375Z" fill="#00486D"/>
<path d="M16.05 54.8334H14.2875C13.8201 54.8334 13.3718 55.009 13.0412 55.3215C12.7107 55.6341 12.525 56.058 12.525 56.5V59C12.525 59.4421 12.7107 59.866 13.0412 60.1786C13.3718 60.4911 13.8201 60.6667 14.2875 60.6667H16.05C16.5175 60.6667 16.9658 60.4911 17.2963 60.1786C17.6268 59.866 17.8125 59.4421 17.8125 59V56.5C17.8125 56.058 17.6268 55.6341 17.2963 55.3215C16.9658 55.009 16.5175 54.8334 16.05 54.8334ZM14.2875 59V56.5H16.05V59H14.2875Z" fill="#00486D"/>
<path d="M23.1 54.8334H21.3375C20.8701 54.8334 20.4218 55.009 20.0912 55.3215C19.7607 55.6341 19.575 56.058 19.575 56.5V59C19.575 59.4421 19.7607 59.866 20.0912 60.1786C20.4218 60.4911 20.8701 60.6667 21.3375 60.6667H23.1C23.5675 60.6667 24.0158 60.4911 24.3463 60.1786C24.6768 59.866 24.8625 59.4421 24.8625 59V56.5C24.8625 56.058 24.6768 55.6341 24.3463 55.3215C24.0158 55.009 23.5675 54.8334 23.1 54.8334ZM21.3375 59V56.5H23.1V59H21.3375Z" fill="#00486D"/>
<path d="M30.15 54.8334H28.3875C27.9201 54.8334 27.4718 55.009 27.1412 55.3215C26.8107 55.6341 26.625 56.058 26.625 56.5V59C26.625 59.4421 26.8107 59.866 27.1412 60.1786C27.4718 60.4911 27.9201 60.6667 28.3875 60.6667H30.15C30.6174 60.6667 31.0657 60.4911 31.3963 60.1786C31.7268 59.866 31.9125 59.4421 31.9125 59V56.5C31.9125 56.058 31.7268 55.6341 31.3963 55.3215C31.0657 55.009 30.6174 54.8334 30.15 54.8334ZM28.3875 59V56.5H30.15V59H28.3875Z" fill="#00486D"/>
<path d="M30.15 47.3334H28.3875C27.9201 47.3334 27.4718 47.509 27.1412 47.8215C26.8107 48.1341 26.625 48.558 26.625 49V51.5C26.625 51.9421 26.8107 52.366 27.1412 52.6786C27.4718 52.9911 27.9201 53.1667 28.3875 53.1667H30.15C30.6174 53.1667 31.0657 52.9911 31.3963 52.6786C31.7268 52.366 31.9125 51.9421 31.9125 51.5V49C31.9125 48.558 31.7268 48.1341 31.3963 47.8215C31.0657 47.509 30.6174 47.3334 30.15 47.3334ZM28.3875 51.5V49H30.15V51.5H28.3875Z" fill="#00486D"/>
<path d="M39.8438 45.6667C39.6891 45.6665 39.5372 45.6279 39.4033 45.5547C39.2695 45.4814 39.1583 45.3762 39.0811 45.2495C39.0039 45.1228 38.9633 44.9791 38.9634 44.8328C38.9635 44.6866 39.0043 44.5429 39.0816 44.4163C39.159 44.2897 39.2703 44.1846 39.4043 44.1115C39.5382 44.0384 39.6902 44 39.8448 44C39.9995 44 40.1514 44.0386 40.2853 44.1117C40.4193 44.1848 40.5305 44.29 40.6078 44.4167C40.7283 44.6009 40.92 44.7335 41.1422 44.7864C41.3644 44.8392 41.5997 44.8082 41.7981 44.6998C41.9964 44.5914 42.1424 44.4142 42.205 44.2058C42.2675 43.9974 42.2418 43.7741 42.1332 43.5833C41.8142 43.076 41.3152 42.6922 40.725 42.5V42.3333C40.725 42.1123 40.6322 41.9004 40.4669 41.7441C40.3016 41.5878 40.0775 41.5 39.8438 41.5C39.61 41.5 39.3859 41.5878 39.2206 41.7441C39.0554 41.9004 38.9625 42.1123 38.9625 42.3333V42.4867C38.375 42.6823 37.8797 43.0683 37.5643 43.5763C37.2489 44.0842 37.1338 44.6813 37.2393 45.2618C37.3449 45.8423 37.6643 46.3688 38.141 46.7479C38.6177 47.1271 39.2209 47.3344 39.8438 47.3333C39.9984 47.3335 40.1503 47.3721 40.2842 47.4453C40.418 47.5186 40.5292 47.6238 40.6064 47.7505C40.6836 47.8772 40.7242 48.0209 40.7241 48.1672C40.7241 48.3134 40.6833 48.4571 40.6059 48.5837C40.5285 48.7103 40.4172 48.8154 40.2832 48.8885C40.1493 48.9616 39.9973 49 39.8427 49C39.688 49 39.5361 48.9614 39.4022 48.8883C39.2683 48.8152 39.157 48.71 39.0797 48.5833C38.9592 48.3991 38.7675 48.2665 38.5453 48.2136C38.3231 48.1608 38.0879 48.1918 37.8895 48.3002C37.6911 48.4086 37.5451 48.5857 37.4825 48.7942C37.42 49.0026 37.4457 49.2259 37.5543 49.4167C37.8738 49.9243 38.3734 50.3082 38.9643 50.5V50.6667C38.9643 50.8877 39.0571 51.0996 39.2224 51.2559C39.3876 51.4122 39.6118 51.5 39.8455 51.5C40.0792 51.5 40.3034 51.4122 40.4687 51.2559C40.6339 51.0996 40.7268 50.8877 40.7268 50.6667V50.5133C41.3144 50.3176 41.8098 49.9315 42.1252 49.4234C42.4406 48.9153 42.5556 48.318 42.4498 47.7374C42.344 47.1567 42.0243 46.6303 41.5473 46.2513C41.0703 45.8723 40.4668 45.6652 39.8438 45.6667Z" fill="#00486D"/>
<path d="M38.0813 26.5V20.6667H39.8438C40.0775 20.6667 40.3017 20.5789 40.4669 20.4226C40.6322 20.2663 40.725 20.0543 40.725 19.8333C40.725 19.6123 40.6322 19.4004 40.4669 19.2441C40.3017 19.0878 40.0775 19 39.8438 19H34.5563C34.3226 19 34.0984 19.0878 33.9332 19.2441C33.7679 19.4004 33.675 19.6123 33.675 19.8333C33.675 20.0543 33.7679 20.2663 33.9332 20.4226C34.0984 20.5789 34.3226 20.6667 34.5563 20.6667H36.3188V26.5C36.3188 26.721 36.4116 26.933 36.5769 27.0893C36.7422 27.2455 36.9663 27.3333 37.2 27.3333C37.4338 27.3333 37.6579 27.2455 37.8232 27.0893C37.9885 26.933 38.0813 26.721 38.0813 26.5Z" fill="#00486D"/>
<path d="M41.3929 27.3084C41.6197 27.3618 41.8595 27.3279 42.0598 27.2141C42.2601 27.1004 42.4044 26.9161 42.461 26.7017L42.9545 24.8334H45.5454L46.0389 26.7017C46.0865 26.8821 46.1964 27.0422 46.3513 27.1567C46.5062 27.2711 46.6971 27.3333 46.8937 27.3334C46.9659 27.3332 47.0378 27.3248 47.1079 27.3084C47.3345 27.2548 47.5294 27.1184 47.6498 26.929C47.7701 26.7396 47.8059 26.5128 47.7494 26.2984L46.2002 20.44C46.0915 20.0289 45.8407 19.6639 45.4875 19.4031C45.1343 19.1423 44.699 19.0006 44.2508 19.0006C43.8027 19.0006 43.3674 19.1423 43.0142 19.4031C42.661 19.6639 42.4102 20.0289 42.3015 20.44L40.7523 26.2984C40.6958 26.5126 40.7315 26.7394 40.8516 26.9287C40.9717 27.1181 41.1664 27.2547 41.3929 27.3084ZM44.4897 20.8434L45.1048 23.1667H43.3951L44.012 20.8434C44.0308 20.7979 44.0637 20.7589 44.1063 20.7314C44.1489 20.7039 44.1993 20.6892 44.2508 20.6892C44.3024 20.6892 44.3528 20.7039 44.3954 20.7314C44.438 20.7589 44.4709 20.7979 44.4897 20.8434Z" fill="#00486D"/>
<path d="M49.89 27.1667C50.077 27.2993 50.312 27.3562 50.5434 27.325C50.7747 27.2937 50.9835 27.1768 51.1237 27L53.0625 24.555L55.0012 27C55.1415 27.1768 55.3502 27.2937 55.5816 27.325C55.813 27.3562 56.048 27.2993 56.235 27.1667C56.422 27.0341 56.5456 26.8366 56.5786 26.6179C56.6117 26.3991 56.5515 26.1768 56.4112 26L54.164 23.1667L56.4112 20.3333C56.5515 20.1565 56.6117 19.9343 56.5786 19.7155C56.5456 19.4967 56.422 19.2993 56.235 19.1667C56.048 19.0341 55.813 18.9771 55.5816 19.0084C55.3502 19.0396 55.1415 19.1565 55.0012 19.3333L53.0625 21.7783L51.1237 19.3333C50.9835 19.1565 50.7747 19.0396 50.5434 19.0084C50.312 18.9771 50.077 19.0341 49.89 19.1667C49.703 19.2993 49.5794 19.4967 49.5463 19.7155C49.5133 19.9343 49.5735 20.1565 49.7137 20.3333L51.9609 23.1667L49.7137 26C49.6443 26.0876 49.5938 26.1872 49.5651 26.2932C49.5363 26.3992 49.53 26.5095 49.5463 26.6179C49.5627 26.7262 49.6015 26.8304 49.6604 26.9246C49.7194 27.0187 49.7974 27.101 49.89 27.1667Z" fill="#00486D"/>
<path d="M37.2 32.3333C37.2 32.5543 37.2928 32.7663 37.4581 32.9226C37.6233 33.0789 37.8475 33.1667 38.0812 33.1667H56.5875C56.8212 33.1667 57.0453 33.0789 57.2106 32.9226C57.3759 32.7663 57.4687 32.5543 57.4687 32.3333C57.4687 32.1123 57.3759 31.9004 57.2106 31.7441C57.0453 31.5878 56.8212 31.5 56.5875 31.5H38.0812C37.8475 31.5 37.6233 31.5878 37.4581 31.7441C37.2928 31.9004 37.2 32.1123 37.2 32.3333Z" fill="#00486D"/>
<path d="M56.5875 34.8334H45.1313C44.8975 34.8334 44.6734 34.9212 44.5081 35.0775C44.3428 35.2337 44.25 35.4457 44.25 35.6667C44.25 35.8877 44.3428 36.0997 44.5081 36.256C44.6734 36.4122 44.8975 36.5 45.1313 36.5H56.5875C56.8212 36.5 57.0454 36.4122 57.2106 36.256C57.3759 36.0997 57.4688 35.8877 57.4688 35.6667C57.4688 35.4457 57.3759 35.2337 57.2106 35.0775C57.0454 34.9212 56.8212 34.8334 56.5875 34.8334Z" fill="#00486D"/>
<path d="M56.5875 41.5H45.1313C44.8975 41.5 44.6734 41.5878 44.5081 41.7441C44.3428 41.9004 44.25 42.1123 44.25 42.3333C44.25 42.5543 44.3428 42.7663 44.5081 42.9226C44.6734 43.0789 44.8975 43.1667 45.1313 43.1667H56.5875C56.8212 43.1667 57.0454 43.0789 57.2106 42.9226C57.3759 42.7663 57.4688 42.5543 57.4688 42.3333C57.4688 42.1123 57.3759 41.9004 57.2106 41.7441C57.0454 41.5878 56.8212 41.5 56.5875 41.5Z" fill="#00486D"/>
<path d="M56.5875 44.8334H55.7062C55.4725 44.8334 55.2483 44.9212 55.0831 45.0775C54.9178 45.2337 54.825 45.4457 54.825 45.6667C54.825 45.8877 54.9178 46.0997 55.0831 46.256C55.2483 46.4122 55.4725 46.5 55.7062 46.5H56.5875C56.8212 46.5 57.0453 46.4122 57.2106 46.256C57.3759 46.0997 57.4687 45.8877 57.4687 45.6667C57.4687 45.4457 57.3759 45.2337 57.2106 45.0775C57.0453 44.9212 56.8212 44.8334 56.5875 44.8334Z" fill="#00486D"/>
<path d="M52.1813 44.8334H45.1313C44.8975 44.8334 44.6734 44.9212 44.5081 45.0775C44.3428 45.2337 44.25 45.4457 44.25 45.6667C44.25 45.8877 44.3428 46.0997 44.5081 46.256C44.6734 46.4122 44.8975 46.5 45.1313 46.5H52.1813C52.415 46.5 52.6391 46.4122 52.8044 46.256C52.9697 46.0997 53.0625 45.8877 53.0625 45.6667C53.0625 45.4457 52.9697 45.2337 52.8044 45.0775C52.6391 44.9212 52.415 44.8334 52.1813 44.8334Z" fill="#00486D"/>
<path d="M50.4187 48.1666H45.1312C44.8975 48.1666 44.6734 48.2544 44.5081 48.4107C44.3428 48.567 44.25 48.7789 44.25 49C44.25 49.221 44.3428 49.4329 44.5081 49.5892C44.6734 49.7455 44.8975 49.8333 45.1312 49.8333H50.4187C50.6525 49.8333 50.8766 49.7455 51.0419 49.5892C51.2072 49.4329 51.3 49.221 51.3 49C51.3 48.7789 51.2072 48.567 51.0419 48.4107C50.8766 48.2544 50.6525 48.1666 50.4187 48.1666Z" fill="#00486D"/>
<path d="M38.0812 36.5H41.6062C41.8399 36.5 42.0641 36.4122 42.2293 36.256C42.3946 36.0997 42.4875 35.8877 42.4875 35.6667C42.4875 35.4457 42.3946 35.2337 42.2293 35.0775C42.0641 34.9212 41.8399 34.8334 41.6062 34.8334H38.0812C37.8475 34.8334 37.6233 34.9212 37.4581 35.0775C37.2928 35.2337 37.2 35.4457 37.2 35.6667C37.2 35.8877 37.2928 36.0997 37.4581 36.256C37.6233 36.4122 37.8475 36.5 38.0812 36.5Z" fill="#00486D"/>
<path d="M16.9313 42.3334C17.1312 42.3337 17.3253 42.2693 17.4812 42.1509L21.8874 38.8175C21.9778 38.7491 22.053 38.6646 22.1089 38.5687C22.1647 38.4728 22.2 38.3674 22.2128 38.2586C22.2255 38.1498 22.2155 38.0397 22.1833 37.9346C22.151 37.8294 22.0972 37.7313 22.0249 37.6459C21.9525 37.5604 21.8631 37.4892 21.7617 37.4365C21.6603 37.3837 21.5489 37.3503 21.4338 37.3382C21.3188 37.3261 21.2023 37.3356 21.0911 37.3661C20.98 37.3966 20.8762 37.4475 20.7858 37.5159L16.3796 40.8492C16.2369 40.9571 16.1332 41.1043 16.0828 41.2704C16.0325 41.4366 16.038 41.6134 16.0986 41.7764C16.1592 41.9394 16.2719 42.0806 16.421 42.1804C16.5702 42.2802 16.7485 42.3336 16.9313 42.3334Z" fill="#00486D"/>
<path d="M23.1 42.3334C23.3 42.3337 23.494 42.2693 23.6499 42.1509L28.0562 38.8175C28.1465 38.7491 28.2218 38.6646 28.2776 38.5687C28.3334 38.4728 28.3687 38.3674 28.3815 38.2586C28.3943 38.1498 28.3843 38.0397 28.352 37.9346C28.3198 37.8294 28.266 37.7313 28.1936 37.6459C28.1213 37.5604 28.0319 37.4892 27.9305 37.4365C27.8291 37.3837 27.7176 37.3503 27.6026 37.3382C27.4875 37.3261 27.3711 37.3356 27.2599 37.3661C27.1487 37.3966 27.045 37.4475 26.9546 37.5159L22.5484 40.8492C22.4056 40.9571 22.3019 41.1043 22.2516 41.2704C22.2012 41.4366 22.2067 41.6134 22.2673 41.7764C22.3279 41.9394 22.4406 42.0806 22.5898 42.1804C22.739 42.2802 22.9173 42.3336 23.1 42.3334Z" fill="#00486D"/>
<path d="M56.5875 38.1666H38.0812C37.8475 38.1666 37.6233 38.2544 37.4581 38.4107C37.2928 38.567 37.2 38.7789 37.2 39C37.2 39.221 37.2928 39.4329 37.4581 39.5892C37.6233 39.7455 37.8475 39.8333 38.0812 39.8333H56.5875C56.8212 39.8333 57.0453 39.7455 57.2106 39.5892C57.3759 39.4329 57.4687 39.221 57.4687 39C57.4687 38.7789 57.3759 38.567 57.2106 38.4107C57.0453 38.2544 56.8212 38.1666 56.5875 38.1666Z" fill="#00486D"/>
</g>
<defs>
<clipPath id="clip0_1_188">
<rect width="52.875" height="50" fill="white" transform="translate(9 14)"/>
</clipPath>
</defs>
</svg>
