<svg width="32" height="33" viewBox="0 0 32 33" fill="none" xmlns="http://www.w3.org/2000/svg">
<g clip-path="url(#clip0_1_343)">
<path fill-rule="evenodd" clip-rule="evenodd" d="M0 16.3281C0 7.49159 7.16347 0.328125 16 0.328125C24.8365 0.328125 32 7.49159 32 16.3281C32 25.1647 24.8365 32.3281 16 32.3281C7.16347 32.3281 0 25.1647 0 16.3281ZM17.6677 25.7358V17.0309H20.0706L20.3891 14.0312H17.6677L17.6718 12.5298C17.6718 11.7474 17.7461 11.3282 18.8699 11.3282H20.3721V8.32812H17.9688C15.0821 8.32812 14.0661 9.78333 14.0661 12.2305V14.0315H12.2667V17.0313H14.0661V25.7358H17.6677Z" fill="#99B6C5"/>
</g>
<defs>
<clipPath id="clip0_1_343">
<rect width="32" height="32" fill="white" transform="translate(0 0.328125)"/>
</clipPath>
</defs>
</svg>
