<svg width="58" height="64" viewBox="0 0 58 64" fill="none" xmlns="http://www.w3.org/2000/svg">
<g clip-path="url(#clip0_7813_16)">
<path d="M14.4349 40.9471C14.883 40.9471 15.2463 40.6186 15.2463 40.2132V39.7044C15.2463 38.5341 14.2576 37.5687 12.9961 37.4554V36.6516C12.9961 36.2462 12.6327 35.9177 12.1847 35.9177C11.7366 35.9177 11.3733 36.2462 11.3733 36.6516V37.4906C10.0929 37.7151 9.12303 38.7363 9.12303 39.9588C9.12303 41.3455 10.3703 42.4735 11.9033 42.4735H12.4658C13.1041 42.4735 13.6234 42.9431 13.6234 43.5205C13.6234 44.0978 13.1041 44.5674 12.4658 44.5674H11.622C11.1389 44.5674 10.7457 44.2119 10.7457 43.7748C10.7457 43.3694 10.3824 43.0409 9.93433 43.0409C9.48625 43.0409 9.12292 43.3694 9.12292 43.7748C9.12292 44.9451 10.1115 45.9105 11.3732 46.0238V46.8276C11.3732 47.233 11.7365 47.5615 12.1846 47.5615C12.6326 47.5615 12.996 47.233 12.996 46.8276V45.9886C14.2763 45.7641 15.2462 44.7429 15.2462 43.5204C15.2462 42.1337 13.9989 41.0057 12.4659 41.0057H11.9034C11.2651 41.0057 10.7458 40.5361 10.7458 39.9587C10.7458 39.3814 11.2651 38.9118 11.9034 38.9118H12.7472C13.2304 38.9118 13.6235 39.2673 13.6235 39.7044V40.2132C13.6235 40.6186 13.9868 40.9471 14.4349 40.9471Z" fill="#00486D"/>
<path d="M32.6096 22.1605C33.0578 22.1605 33.421 21.832 33.421 21.4266V20.9178C33.421 19.7475 32.4323 18.7821 31.1708 18.6688V17.865C31.1708 17.4596 30.8075 17.1311 30.3593 17.1311C29.9113 17.1311 29.5479 17.4596 29.5479 17.865V18.704C28.2676 18.9285 27.2977 19.9497 27.2977 21.1722C27.2977 22.5588 28.545 23.6869 30.078 23.6869H30.6405C31.2788 23.6869 31.7981 24.1565 31.7981 24.7338C31.7981 25.3112 31.2788 25.7808 30.6405 25.7808H29.7967C29.3135 25.7808 28.9204 25.4252 28.9204 24.9881C28.9204 24.5828 28.5571 24.2542 28.109 24.2542C27.6609 24.2542 27.2976 24.5828 27.2976 24.9881C27.2976 26.1584 28.2862 27.1239 29.5478 27.2372V28.041C29.5478 28.4463 29.9112 28.7749 30.3592 28.7749C30.8074 28.7749 31.1706 28.4463 31.1706 28.041V27.202C32.4509 26.9775 33.4209 25.9563 33.4209 24.7337C33.4209 23.3471 32.1736 22.2191 30.6406 22.2191H30.0781C29.4398 22.2191 28.9205 21.7495 28.9205 21.1721C28.9205 20.5948 29.4398 20.1251 30.0781 20.1251H30.9219C31.405 20.1251 31.7982 20.4807 31.7982 20.9178V21.4266C31.7982 21.8321 32.1614 22.1605 32.6096 22.1605Z" fill="#00486D"/>
<path d="M48.5341 28.4814C46.1887 28.4814 44.0401 29.2573 42.3847 30.5396L38.368 27.5122C39.2906 26.1912 39.8253 24.6276 39.8253 22.953C39.8253 18.2321 35.5789 14.3914 30.3594 14.3914C25.1398 14.3914 20.8934 18.2321 20.8934 22.953C20.8934 25.43 22.0629 27.6642 23.9282 29.229L17.3136 34.5468C15.8348 33.6812 14.0735 33.178 12.1847 33.178C6.96515 33.1781 2.71875 37.0187 2.71875 41.7397C2.71875 46.4607 6.96515 50.3013 12.1847 50.3013C17.4042 50.3013 21.6506 46.4606 21.6506 41.7397C21.6506 39.2626 20.4812 37.0285 18.6159 35.4636L25.2304 30.1458C26.7093 31.0114 28.4705 31.5146 30.3594 31.5146C33.1448 31.5146 35.6529 30.4206 37.3866 28.683L41.2425 31.5892C39.885 33.0713 39.0681 34.9724 39.0681 37.0429C39.0681 41.7638 43.3145 45.6045 48.5341 45.6045C53.7536 45.6045 58 41.7638 58 37.0429C58 32.322 53.7536 28.4814 48.5341 28.4814ZM20.0279 41.7397C20.0279 45.6513 16.5095 48.8336 12.1847 48.8336C7.85991 48.8336 4.34145 45.6513 4.34145 41.7397C4.34145 37.8281 7.85991 34.6458 12.1847 34.6458C16.5095 34.6458 20.0279 37.8281 20.0279 41.7397ZM30.3594 30.0469C26.0346 30.0469 22.5161 26.8646 22.5161 22.953C22.5161 19.0414 26.0346 15.859 30.3594 15.859C34.6842 15.859 38.2026 19.0414 38.2026 22.953C38.2026 26.8646 34.6842 30.0469 30.3594 30.0469ZM48.5341 44.137C44.2093 44.137 40.6908 40.9546 40.6908 37.043C40.6908 35.1973 41.4747 33.5144 42.7565 32.2512C42.8855 32.2083 43.0046 32.1358 43.0991 32.0333C43.1601 31.9671 43.2051 31.8937 43.2363 31.8172C44.6329 30.6582 46.4934 29.9492 48.534 29.9492C52.8587 29.9492 56.3772 33.1315 56.3772 37.0431C56.3773 40.9546 52.8588 44.137 48.5341 44.137Z" fill="#00486D"/>
<path d="M50.7842 36.2505C51.2324 36.2505 51.5956 35.9219 51.5956 35.5166V35.0078C51.5956 33.8375 50.6069 32.872 49.3454 32.7588V31.955C49.3454 31.5496 48.9821 31.2211 48.534 31.2211C48.0858 31.2211 47.7225 31.5496 47.7225 31.955V32.7939C46.4423 33.0184 45.4723 34.0396 45.4723 35.2622C45.4723 36.6488 46.7196 37.7768 48.2526 37.7768H48.815C49.4533 37.7768 49.9726 38.2465 49.9726 38.8238C49.9726 39.4011 49.4533 39.8708 48.815 39.8708H47.9712C47.488 39.8708 47.0949 39.5152 47.0949 39.0781C47.0949 38.6727 46.7317 38.3442 46.2835 38.3442C45.8353 38.3442 45.4721 38.6727 45.4721 39.0781C45.4721 40.2484 46.4607 41.2138 47.7223 41.3271V42.1309C47.7223 42.5363 48.0855 42.8648 48.5337 42.8648C48.9819 42.8648 49.3451 42.5363 49.3451 42.1309V41.292C50.6254 41.0675 51.5954 40.0463 51.5954 38.8237C51.5954 37.4371 50.3481 36.3091 48.8151 36.3091H48.2527C47.6144 36.3091 47.0951 35.8394 47.0951 35.2621C47.0951 34.6847 47.6144 34.2151 48.2527 34.2151H49.0965C49.5797 34.2151 49.9728 34.5707 49.9728 35.0078V35.5166C49.9729 35.9219 50.336 36.2505 50.7842 36.2505Z" fill="#00486D"/>
<path d="M19.9738 52.7476H13.0502C12.6021 52.7476 12.2388 53.0761 12.2388 53.4814V62.8748C12.2388 63.2802 12.6021 63.6087 13.0502 63.6087H19.9738C20.4219 63.6087 20.7852 63.2802 20.7852 62.8748V53.4814C20.7852 53.076 20.4219 52.7476 19.9738 52.7476ZM19.1624 62.1409H13.8615V54.2152H19.1624V62.1409Z" fill="#00486D"/>
<path d="M53.7268 52.7476H46.8032C46.355 52.7476 45.9918 53.0761 45.9918 53.4814V62.8748C45.9918 63.2802 46.355 63.6087 46.8032 63.6087H53.7268C54.175 63.6087 54.5382 63.2802 54.5382 62.8748V53.4814C54.5381 53.076 54.175 52.7476 53.7268 52.7476ZM52.9154 62.1409H47.6145V54.2152H52.9154V62.1409Z" fill="#00486D"/>
<path d="M31.2248 55.8301C31.673 55.8301 32.0363 55.5016 32.0363 55.0962V44.0881C32.0363 43.6828 31.673 43.3542 31.2248 43.3542H24.3011C23.853 43.3542 23.4897 43.6828 23.4897 44.0881V62.8749C23.4897 63.2802 23.853 63.6087 24.3011 63.6087H31.2247C31.6729 63.6087 32.0361 63.2802 32.0361 62.8749V58.5209C32.0361 58.1155 31.6729 57.787 31.2247 57.787C30.7766 57.787 30.4133 58.1155 30.4133 58.5209V62.141H25.1124V44.8219H30.4133V55.0961C30.4134 55.5016 30.7767 55.8301 31.2248 55.8301Z" fill="#00486D"/>
<path d="M42.4758 48.0509H35.5521C35.1039 48.0509 34.7407 48.3794 34.7407 48.7848V62.8748C34.7407 63.2802 35.1039 63.6087 35.5521 63.6087H42.4758C42.924 63.6087 43.2872 63.2802 43.2872 62.8748V48.7848C43.2872 48.3794 42.924 48.0509 42.4758 48.0509ZM41.6645 62.1409H36.3635V49.5186H41.6645V62.1409Z" fill="#00486D"/>
</g>
<defs>
<clipPath id="clip0_7813_16">
<rect width="55.2812" height="50" fill="white" transform="translate(2.71875 14)"/>
</clipPath>
</defs>
</svg>
