<svg width="64" height="64" viewBox="0 0 64 64" fill="none" xmlns="http://www.w3.org/2000/svg">
<g clip-path="url(#clip0_1_176)">
<g clip-path="url(#clip1_1_176)">
<path d="M60.0114 25.6692C60.3532 25.6709 60.671 25.5219 60.8515 25.2758C61.0321 25.03 61.0489 24.7224 60.8962 24.4632L59.1443 21.5026L60.8962 18.5415C61.0489 18.2823 61.0321 17.9747 60.8515 17.729C60.671 17.4832 60.3532 17.3343 60.0114 17.3359H55.0952V14.8359C55.0952 14.3757 54.6549 14.0026 54.1119 14.0026H8.88271C5.08368 14.0066 2.0048 16.6157 2 19.8359V58.1692C2.0048 61.389 5.08368 63.9981 8.88271 64.0026H54.1119C54.6549 64.0026 55.0952 63.6294 55.0952 63.1692V45.6692H60.0114C60.3532 45.6709 60.671 45.5219 60.8515 45.2758C61.0321 45.03 61.0489 44.7224 60.8962 44.4632L59.1443 41.5026L60.8962 38.5415C61.0489 38.2823 61.0321 37.9747 60.8515 37.729C60.671 37.4832 60.3532 37.3343 60.0114 37.3359H55.0952V35.6692H60.0114C60.3532 35.6709 60.671 35.5219 60.8515 35.2758C61.0321 35.03 61.0489 34.7224 60.8962 34.4632L59.1443 31.5026L60.8962 28.5415C61.0489 28.2823 61.0321 27.9747 60.8515 27.729C60.671 27.4832 60.3532 27.3343 60.0114 27.3359H55.0952V25.6692H60.0114ZM58.4203 19.0026L57.1649 21.1298C57.0266 21.3642 57.0266 21.6405 57.1649 21.8749L58.4203 24.0026H55.0952V19.0026H58.4203ZM3.96649 19.8359C3.96985 17.5357 6.1687 15.6717 8.88271 15.6692H53.1287V52.3359H8.88271C7.03096 52.3355 5.25747 52.9698 3.96649 54.0949V19.8359ZM8.88271 62.3359C6.16774 62.3359 3.96649 60.4703 3.96649 58.1692C3.96649 55.8678 6.16774 54.0026 8.88271 54.0026H53.1287V55.6692H14.7822C14.2392 55.6692 13.7989 56.0424 13.7989 56.5026C13.7989 56.9628 14.2392 57.3359 14.7822 57.3359H53.1287V59.0258L23.6314 59.0026C23.0884 59.0026 22.6481 59.3757 22.6481 59.8359C22.6481 60.2961 23.0884 60.6692 23.6314 60.6692L53.1287 60.6924V62.3359H8.88271ZM58.4203 39.0026L57.1649 41.1298C57.0266 41.3642 57.0266 41.6405 57.1649 41.8749L58.4203 44.0026H55.0952V39.0026H58.4203ZM58.4203 29.0026L57.1649 31.1298C57.0266 31.3642 57.0266 31.6405 57.1649 31.8749L58.4203 34.0026H55.0952V29.0026H58.4203Z" fill="#00486D"/>
<path d="M8.88272 49.0024C9.42571 49.0024 9.86596 48.6293 9.86596 48.1691V19.8358C9.86596 19.3756 9.42571 19.0024 8.88272 19.0024C8.33973 19.0024 7.89948 19.3756 7.89948 19.8358V48.1691C7.89948 48.6293 8.33973 49.0024 8.88272 49.0024Z" fill="#00486D"/>
<path d="M14.7822 49.0024H48.2125C48.7555 49.0024 49.1957 48.6293 49.1957 48.1691V19.8358C49.1957 19.3756 48.7555 19.0024 48.2125 19.0024H14.7822C14.2392 19.0024 13.799 19.3756 13.799 19.8358V48.1691C13.799 48.6293 14.2392 49.0024 14.7822 49.0024ZM15.7654 20.6691H47.2292V47.3358H15.7654V20.6691Z" fill="#00486D"/>
<path d="M31.4974 28.1691C33.1263 28.1691 34.4471 29.2881 34.4471 30.6691C34.4471 31.1293 34.8873 31.5024 35.4303 31.5024C35.9733 31.5024 36.4136 31.1293 36.4136 30.6691C36.4107 28.6895 34.7683 26.9842 32.4806 26.5854V24.8358C32.4806 24.3756 32.0404 24.0024 31.4974 24.0024C30.9544 24.0024 30.5141 24.3756 30.5141 24.8358V26.5854C28.0387 27.0115 26.3473 28.9581 26.6013 31.0878C26.8548 33.2175 28.9716 34.8378 31.4974 34.8358C33.1263 34.8358 34.4471 35.9548 34.4471 37.3358C34.4471 38.7164 33.1263 39.8358 31.4974 39.8358C29.8684 39.8358 28.5476 38.7164 28.5476 37.3358C28.5476 36.8756 28.1074 36.5024 27.5644 36.5024C27.0214 36.5024 26.5811 36.8756 26.5811 37.3358C26.584 39.3149 28.2264 41.0203 30.5141 41.419V43.1691C30.5141 43.6293 30.9544 44.0024 31.4974 44.0024C32.0404 44.0024 32.4806 43.6293 32.4806 43.1691V41.419C34.956 40.993 36.6474 39.0468 36.3934 36.9167C36.1399 34.7869 34.0232 33.1667 31.4974 33.1691C29.8684 33.1691 28.5476 32.0497 28.5476 30.6691C28.5476 29.2881 29.8684 28.1691 31.4974 28.1691Z" fill="#00486D"/>
</g>
</g>
<defs>
<clipPath id="clip0_1_176">
<rect width="64" height="64" fill="white"/>
</clipPath>
<clipPath id="clip1_1_176">
<rect width="59" height="50" fill="white" transform="translate(2 14)"/>
</clipPath>
</defs>
</svg>
