<svg width="192" height="23" viewBox="0 0 192 23" fill="none" xmlns="http://www.w3.org/2000/svg">
<path d="M0.0641251 22V21.328L0.704125 21.136C1.13079 20.9867 1.40813 20.7947 1.53613 20.56C1.68546 20.304 1.76013 19.952 1.76013 19.504V3.344C1.76013 2.896 1.68546 2.55467 1.53613 2.32C1.40813 2.064 1.13079 1.86133 0.704125 1.712L0.0641251 1.52V0.848H8.06413V1.52L7.42413 1.712C7.01879 1.86133 6.74146 2.064 6.59213 2.32C6.44279 2.55467 6.36813 2.896 6.36813 3.344V19.504C6.36813 19.952 6.44279 20.304 6.59213 20.56C6.74146 20.7947 7.01879 20.9867 7.42413 21.136L8.06413 21.328V22H0.0641251ZM9.91688 22V21.328L10.8449 21.072C11.2502 20.9653 11.5275 20.7627 11.6769 20.464C11.8475 20.1653 11.9329 19.8027 11.9329 19.376V3.888C11.7409 3.48267 11.5702 3.184 11.4209 2.992C11.2929 2.77867 11.1542 2.59733 11.0049 2.448C10.8555 2.29867 10.6529 2.128 10.3969 1.936L9.82088 1.52V0.848H15.2929L25.9169 15.376V3.504C25.9169 3.07733 25.8422 2.704 25.6929 2.384C25.5649 2.064 25.2875 1.85067 24.8609 1.744L23.9009 1.52V0.848H28.6689V1.52L27.8689 1.744C27.4635 1.872 27.2075 2.096 27.1009 2.416C27.0155 2.71467 26.9729 3.07733 26.9729 3.504V22.128H25.1809L12.9889 5.36V19.344C12.9889 19.792 13.0529 20.1653 13.1809 20.464C13.3089 20.7627 13.5755 20.9653 13.9809 21.072L14.8449 21.328V22H9.91688ZM39.0129 22.128L32.1649 3.248C31.8875 2.45867 31.3435 1.94667 30.5329 1.712L29.8289 1.52V0.848H38.6929V1.488L37.7969 1.712C37.3062 1.84 37.0289 2.064 36.9649 2.384C36.9222 2.704 36.9862 3.10933 37.1569 3.6L41.7649 17.264L46.4049 3.6C46.5755 3.10933 46.6502 2.704 46.6289 2.384C46.6289 2.064 46.3835 1.84 45.8929 1.712L45.1249 1.488V0.848H49.8929V1.52L49.0929 1.712C48.6449 1.81867 48.3249 2 48.1329 2.256C47.9622 2.512 47.8022 2.864 47.6529 3.312L41.2849 22.128H39.0129ZM59.3294 22.544C58.028 22.544 56.78 22.3093 55.5854 21.84C54.3907 21.3707 53.3134 20.6773 52.3534 19.76C51.4147 18.8213 50.668 17.6587 50.1134 16.272C49.5587 14.8853 49.2814 13.264 49.2814 11.408C49.2814 9.59467 49.5587 7.99467 50.1134 6.608C50.668 5.22133 51.4147 4.05867 52.3534 3.12C53.3134 2.18133 54.3907 1.47733 55.5854 1.008C56.8014 0.517333 58.0494 0.271999 59.3294 0.271999C60.6094 0.271999 61.8467 0.506666 63.0414 0.976C64.2574 1.44533 65.3347 2.14933 66.2734 3.088C67.212 4.00533 67.9587 5.15733 68.5134 6.544C69.068 7.93067 69.3454 9.552 69.3454 11.408C69.3454 13.2213 69.068 14.8213 68.5134 16.208C67.9587 17.5947 67.212 18.7573 66.2734 19.696C65.3347 20.6347 64.268 21.3493 63.0734 21.84C61.8787 22.3093 60.6307 22.544 59.3294 22.544ZM59.3294 21.584C60.5454 21.584 61.5267 21.2747 62.2734 20.656C63.02 20.016 63.564 18.9493 63.9054 17.456C64.2467 15.9627 64.4174 13.9467 64.4174 11.408C64.4174 8.86933 64.2467 6.864 63.9054 5.392C63.564 3.89867 63.02 2.84267 62.2734 2.224C61.5267 1.584 60.5454 1.264 59.3294 1.264C58.1347 1.264 57.1534 1.584 56.3854 2.224C55.6387 2.84267 55.0947 3.89867 54.7534 5.392C54.412 6.864 54.2414 8.86933 54.2414 11.408C54.2414 13.9467 54.412 15.9627 54.7534 17.456C55.0947 18.9493 55.6387 20.016 56.3854 20.656C57.1534 21.2747 58.1347 21.584 59.3294 21.584ZM70.1891 22V21.328L70.8291 21.136C71.2558 20.9867 71.5331 20.7947 71.6611 20.56C71.8105 20.304 71.8851 19.952 71.8851 19.504V3.344C71.8851 2.896 71.8105 2.55467 71.6611 2.32C71.5331 2.064 71.2558 1.86133 70.8291 1.712L70.1891 1.52V0.848H78.1891V1.52L77.5491 1.712C77.1438 1.86133 76.8665 2.064 76.7171 2.32C76.5678 2.55467 76.4931 2.896 76.4931 3.344V19.504C76.4931 19.952 76.5678 20.304 76.7171 20.56C76.8665 20.7947 77.1438 20.9867 77.5491 21.136L78.1891 21.328V22H70.1891ZM90.0394 22.544C87.97 22.544 86.1034 22.1173 84.4394 21.264C82.7754 20.4107 81.4527 19.152 80.4714 17.488C79.5114 15.824 79.0314 13.7973 79.0314 11.408C79.0314 9.616 79.3194 8.02667 79.8954 6.64C80.4927 5.25333 81.3034 4.09067 82.3274 3.152C83.3727 2.192 84.5674 1.47733 85.9114 1.008C87.2554 0.517333 88.6847 0.271999 90.1994 0.271999C91.3727 0.271999 92.4714 0.410666 93.4954 0.688C94.5194 0.943999 95.5007 1.328 96.4394 1.84L96.5674 6.032H95.7034L94.3594 3.504C94.146 3.07733 93.9114 2.69333 93.6554 2.352C93.4207 2.01067 93.1114 1.76533 92.7274 1.616C92.194 1.36 91.5647 1.232 90.8394 1.232C89.5807 1.232 88.4287 1.552 87.3834 2.192C86.3594 2.832 85.538 3.89867 84.9194 5.392C84.3007 6.864 83.9914 8.88 83.9914 11.44C83.9914 13.9787 84.2794 15.9947 84.8554 17.488C85.4527 18.9813 86.2527 20.048 87.2554 20.688C88.258 21.3067 89.3887 21.616 90.6474 21.616C91.2234 21.616 91.6927 21.5733 92.0554 21.488C92.418 21.4027 92.7807 21.2853 93.1434 21.136C93.57 20.9653 93.9007 20.72 94.1354 20.4C94.37 20.0587 94.5727 19.6747 94.7434 19.248L95.9594 16.336H96.8234L96.6954 20.944C95.778 21.456 94.7647 21.8507 93.6554 22.128C92.546 22.4053 91.3407 22.544 90.0394 22.544ZM98.3766 22V21.328L99.0166 21.104C99.4006 20.9973 99.6673 20.816 99.8166 20.56C99.966 20.2827 100.051 19.9093 100.073 19.44V3.344C100.051 2.896 99.9766 2.55467 99.8486 2.32C99.7206 2.064 99.454 1.872 99.0486 1.744L98.3766 1.52V0.848H113.609L113.833 5.968H112.937L111.657 3.088C111.486 2.68267 111.294 2.37333 111.081 2.16C110.867 1.92533 110.547 1.808 110.121 1.808H104.681C104.659 3.13067 104.649 4.496 104.649 5.904C104.649 7.29067 104.649 8.85867 104.649 10.608H107.817C108.243 10.608 108.563 10.5013 108.777 10.288C109.011 10.0533 109.225 9.744 109.417 9.36L109.961 8.144H110.665V14.064H109.961L109.385 12.848C109.214 12.464 109.022 12.1547 108.809 11.92C108.595 11.6853 108.275 11.568 107.849 11.568H104.649C104.649 13.104 104.649 14.4267 104.649 15.536C104.649 16.6453 104.649 17.6373 104.649 18.512C104.67 19.3653 104.681 20.208 104.681 21.04H110.825C111.251 21.04 111.582 20.9333 111.817 20.72C112.051 20.4853 112.243 20.1653 112.393 19.76L113.577 16.88H114.473L114.249 22H98.3766ZM123.127 22V21.328L123.767 21.168C124.193 21.04 124.471 20.848 124.599 20.592C124.727 20.336 124.791 19.984 124.791 19.536C124.812 18.32 124.823 17.0933 124.823 15.856C124.823 14.5973 124.823 13.3387 124.823 12.08V10.768C124.823 9.53067 124.823 8.29333 124.823 7.056C124.823 5.81867 124.812 4.58133 124.791 3.344C124.791 2.896 124.716 2.55467 124.567 2.32C124.439 2.064 124.161 1.86133 123.735 1.712L123.127 1.52V0.848H130.839C133.953 0.848 136.215 1.43467 137.623 2.608C139.052 3.76 139.767 5.28533 139.767 7.184C139.767 8.37867 139.468 9.488 138.871 10.512C138.295 11.5147 137.335 12.3147 135.991 12.912C134.647 13.5093 132.833 13.808 130.551 13.808H129.399C129.399 14.704 129.399 15.632 129.399 16.592C129.399 17.5307 129.409 18.4907 129.431 19.472C129.431 20.3467 129.825 20.88 130.615 21.072L131.575 21.328V22H123.127ZM129.399 12.88H130.743C131.809 12.88 132.673 12.72 133.335 12.4C134.017 12.0587 134.519 11.4827 134.839 10.672C135.18 9.86133 135.351 8.74133 135.351 7.312C135.351 5.88267 135.169 4.77333 134.807 3.984C134.465 3.17333 133.943 2.608 133.239 2.288C132.535 1.94667 131.66 1.776 130.615 1.776H129.431C129.409 3.248 129.399 4.74133 129.399 6.256C129.399 7.74933 129.399 9.25333 129.399 10.768V12.88ZM140.752 22V21.328L141.392 21.136C141.84 20.9867 142.128 20.7947 142.256 20.56C142.384 20.304 142.448 19.952 142.448 19.504V3.312C142.448 2.88533 142.384 2.55467 142.256 2.32C142.128 2.064 141.85 1.86133 141.424 1.712L140.752 1.52V0.848H148.688V1.52L148.08 1.712C147.674 1.86133 147.397 2.064 147.248 2.32C147.12 2.576 147.056 2.928 147.056 3.376V21.04H151.76C152.485 21.04 153.029 20.8587 153.392 20.496C153.754 20.1333 154.096 19.6107 154.416 18.928L155.6 16.272H156.496L156.176 22H140.752ZM166.487 22.544C164.887 22.544 163.468 22.256 162.231 21.68C161.015 21.104 160.055 20.1973 159.351 18.96C158.668 17.7013 158.327 16.048 158.327 14V10.544C158.327 9.34933 158.327 8.144 158.327 6.928C158.327 5.712 158.316 4.48533 158.295 3.248C158.295 2.416 157.9 1.89333 157.111 1.68L156.407 1.52V0.848H165.047V1.52L164.151 1.712C163.34 1.904 162.935 2.43733 162.935 3.312C162.914 4.50667 162.903 5.712 162.903 6.928C162.903 8.12267 162.903 9.328 162.903 10.544V14.608C162.903 16.6773 163.319 18.1707 164.151 19.088C165.004 20.0053 166.21 20.464 167.767 20.464C169.41 20.464 170.69 19.9733 171.607 18.992C172.546 17.9893 173.015 16.5067 173.015 14.544V3.408C173.015 2.98133 172.93 2.608 172.759 2.288C172.588 1.968 172.29 1.76533 171.863 1.68L171.095 1.52V0.848H176.023V1.52L175.127 1.712C174.722 1.79733 174.444 1.98933 174.295 2.288C174.146 2.58666 174.071 2.94933 174.071 3.376V14.352C174.071 16.9973 173.378 19.024 171.991 20.432C170.604 21.84 168.77 22.544 166.487 22.544ZM183.63 22.544C182.457 22.544 181.262 22.3947 180.046 22.096C178.851 21.8187 177.849 21.4453 177.038 20.976L177.23 16.528H178.158L179.15 18.736C179.449 19.3547 179.758 19.8667 180.078 20.272C180.398 20.6773 180.825 20.9867 181.358 21.2C181.721 21.3493 182.062 21.456 182.382 21.52C182.723 21.5627 183.097 21.584 183.502 21.584C184.803 21.584 185.827 21.2533 186.574 20.592C187.342 19.9093 187.726 19.0133 187.726 17.904C187.726 16.9013 187.459 16.112 186.926 15.536C186.414 14.96 185.582 14.4053 184.43 13.872L183.118 13.296C181.326 12.5067 179.907 11.5893 178.862 10.544C177.838 9.49867 177.326 8.112 177.326 6.384C177.326 5.104 177.646 4.016 178.286 3.12C178.947 2.20267 179.854 1.49867 181.006 1.008C182.158 0.517333 183.502 0.271999 185.038 0.271999C186.169 0.271999 187.225 0.421333 188.206 0.719999C189.209 1.01867 190.083 1.424 190.83 1.936L190.606 5.904H189.678L188.494 3.504C188.153 2.8 187.822 2.29867 187.502 2C187.203 1.68 186.83 1.47733 186.382 1.392C186.126 1.34933 185.902 1.31733 185.71 1.296C185.539 1.27467 185.305 1.264 185.006 1.264C183.961 1.264 183.054 1.57333 182.286 2.192C181.539 2.78933 181.166 3.62133 181.166 4.688C181.166 5.712 181.454 6.544 182.03 7.184C182.606 7.824 183.438 8.38933 184.526 8.88L185.966 9.488C188.035 10.384 189.518 11.344 190.414 12.368C191.31 13.3707 191.758 14.6613 191.758 16.24C191.758 18.1173 191.043 19.6427 189.614 20.816C188.206 21.968 186.211 22.544 183.63 22.544Z" fill="white"/>
</svg>
